<?xml version="1.0" standalone="no"?>
<!DOCTYPE svg PUBLIC "-//W3C//DTD SVG 20010904//EN"
 "http://www.w3.org/TR/2001/REC-SVG-20010904/DTD/svg10.dtd">
<svg version="1.0" xmlns="http://www.w3.org/2000/svg"
 width="147.000000pt" height="147.000000pt" viewBox="0 0 147.000000 147.000000"
 preserveAspectRatio="xMidYMid meet">
<metadata>
Created by potrace 1.14, written by Peter Selinger 2001-2017
</metadata>
<g transform="translate(0.000000,147.000000) scale(0.100000,-0.100000)"
fill="#000000" stroke="none">
<path d="M58 1430 c-26 -21 -40 -42 -44 -68 -4 -20 -8 -307 -9 -637 -1 -620 0
-642 39 -681 41 -41 56 -41 702 -40 l620 1 37 25 c20 14 42 38 49 55 10 23 12
179 12 656 l0 625 -23 32 c-45 64 -17 62 -713 62 l-633 0 -37 -30z"/>
</g>
</svg>
