<svg id="LinkedIn_Footer" xmlns="http://www.w3.org/2000/svg" width="22.462" height="22.499" viewBox="0 0 22.462 22.499">
  <g id="Grupo_214" data-name="Grupo 214">
    <path id="Caminho_1731" data-name="Caminho 1731" d="M46.019,208.847a2.413,2.413,0,0,1,2.419,2.438,2.458,2.458,0,0,1-2.457,2.438,2.42,2.42,0,0,1-2.419-2.438A2.464,2.464,0,0,1,46.019,208.847Z" transform="translate(-43.562 -208.847)" fill="#631252"/>
  </g>
  <g id="Grupo_215" data-name="Grupo 215" transform="translate(0.202 8.965)">
    <path id="Caminho_1732" data-name="Caminho 1732" d="M48.157,218.241l-.1,13.534H43.845l.1-13.534Z" transform="translate(-43.845 -218.241)" fill="#631252"/>
  </g>
  <g id="Grupo_216" data-name="Grupo 216" transform="translate(9.289 8.636)">
    <path id="Caminho_1733" data-name="Caminho 1733" d="M61.589,217.78c4.262,0,5.024,2.794,5,6.442l-.057,7.421h-4.2l.05-6.576c.012-1.575-.008-3.594-2.161-3.594-2.189,0-2.532,1.708-2.545,3.479l-.051,6.691H53.413l.1-13.533h4.031l-.014,1.851H57.6A4.46,4.46,0,0,1,61.589,217.78Z" transform="translate(-53.413 -217.78)" fill="#631252"/>
  </g>
</svg>
