<svg id="Instagram_Footer" xmlns="http://www.w3.org/2000/svg" width="22.141" height="22.131" viewBox="0 0 22.141 22.131">
  <g id="Grupo_208" data-name="Grupo 208" transform="translate(15.689 3.849)">
    <path id="Caminho_1726" data-name="Caminho 1726" d="M223.824,65.016h.016a1.317,1.317,0,0,1,1.315,1.333,1.342,1.342,0,0,1-1.343,1.325,1.329,1.329,0,0,1,.013-2.658Z" transform="translate(-222.497 -65.016)" fill="#631252"/>
  </g>
  <g id="Grupo_209" data-name="Grupo 209">
    <path id="Caminho_1727" data-name="Caminho 1727" d="M222.543,65.184c.164,1.742.271,9.973-.241,11.9a5.666,5.666,0,0,1-4.887,4.427,54.711,54.711,0,0,1-6.106.246,37.618,37.618,0,0,1-6.151-.326,5.553,5.553,0,0,1-4.407-4.827c-.3-1.867-.329-10.543.21-12.427a5.646,5.646,0,0,1,4.824-4.3,43.141,43.141,0,0,1,5.548-.249c2.066,0,4.15.056,5.4.125a6.1,6.1,0,0,1,4.041,1.653A5.825,5.825,0,0,1,222.543,65.184Zm-2.129,11.058a79.35,79.35,0,0,0,.136-10.871,3.723,3.723,0,0,0-3.315-3.529,50.731,50.731,0,0,0-5.535-.209c-2.2,0-4.4.06-5.363.164a3.793,3.793,0,0,0-3.536,3.334,75.463,75.463,0,0,0-.076,11.174,3.589,3.589,0,0,0,2.732,3.128,34.262,34.262,0,0,0,5.953.327c2.322,0,4.6-.073,5.459-.167a3.779,3.779,0,0,0,3.545-3.351" transform="translate(-200.537 -59.628)" fill="#631252"/>
  </g>
  <g id="Grupo_210" data-name="Grupo 210" transform="translate(5.394 5.396)">
    <path id="Caminho_1728" data-name="Caminho 1728" d="M213.811,67.181a5.625,5.625,0,0,1,5.628,5.68,5.73,5.73,0,0,1-5.723,5.671,5.62,5.62,0,0,1-5.628-5.68A5.719,5.719,0,0,1,213.811,67.181Zm-.082,9.343a3.707,3.707,0,0,0,3.7-3.636,3.634,3.634,0,0,0-3.608-3.707h-.033a3.707,3.707,0,0,0-3.7,3.636,3.638,3.638,0,0,0,3.607,3.706h.034" transform="translate(-208.088 -67.181)" fill="#631252"/>
  </g>
</svg>
