<svg xmlns="http://www.w3.org/2000/svg" width="31" height="31" viewBox="0 0 31 31">
  <g id="Linkedin_Icone_PaginaEquipe" transform="translate(-672 -641.235)">
    <rect id="Retângulo_53" data-name="Retângulo 53" width="31" height="31" transform="translate(672 641.235)" fill="#631252"/>
    <g id="Grupo_1057" data-name="Grupo 1057" transform="translate(677.726 644.644)">
      <g id="Grupo_214" data-name="Grupo 214" transform="translate(0)">
        <path id="Caminho_1731" data-name="Caminho 1731" d="M45.722,208.847a2.122,2.122,0,0,1,2.127,2.144,2.161,2.161,0,0,1-2.16,2.144,2.127,2.127,0,0,1-2.127-2.144A2.167,2.167,0,0,1,45.722,208.847Z" transform="translate(-43.562 -208.847)" fill="#fff"/>
      </g>
      <g id="Grupo_215" data-name="Grupo 215" transform="translate(0.178 7.883)">
        <path id="Caminho_1732" data-name="Caminho 1732" d="M47.636,218.241l-.091,11.9h-3.7l.091-11.9Z" transform="translate(-43.845 -218.241)" fill="#fff"/>
      </g>
      <g id="Grupo_216" data-name="Grupo 216" transform="translate(8.167 7.593)">
        <path id="Caminho_1733" data-name="Caminho 1733" d="M60.6,217.78c3.747,0,4.417,2.457,4.393,5.664l-.05,6.525H61.252l.044-5.782c.011-1.385-.007-3.16-1.9-3.16-1.925,0-2.226,1.5-2.238,3.059l-.045,5.883h-3.7l.091-11.9h3.544l-.012,1.627h.055A3.921,3.921,0,0,1,60.6,217.78Z" transform="translate(-53.413 -217.78)" fill="#fff"/>
      </g>
    </g>
  </g>
</svg>
