<svg xmlns="http://www.w3.org/2000/svg" width="91" height="52.467" viewBox="0 0 91 52.467">
  <g id="Grupo_1" data-name="Grupo 1" transform="translate(-75.056 -74.459)">
    <path id="Caminho_1" data-name="Caminho 1" d="M92.836,97.149l-2.72-6.868H80.33l-2.687,6.868H75.056l9.22-22.69H86.3l9.157,22.69Zm-11.711-8.89H89.32L85.207,77.876Z" fill="#631252"/>
    <path id="Caminho_2" data-name="Caminho 2" d="M158.167,97.9V75.544h2.355V95.78H172.3V97.9Z" transform="translate(-57.734 -0.754)" fill="#631252"/>
    <path id="Caminho_3" data-name="Caminho 3" d="M241.792,97.223V79.31l-6.9,11.112H233.2l-6.9-10.847V97.223h-2.29V74.566h1.859l8.226,13.2,8.227-13.2h1.825V97.223Z" transform="translate(-103.473 -0.074)" fill="#631252"/>
    <path id="Caminho_4" data-name="Caminho 4" d="M324.046,97.149l-2.72-6.868H311.54l-2.687,6.868h-2.587l9.22-22.69h2.024l9.157,22.69Zm-11.711-8.89h8.195l-4.115-10.383Z" transform="translate(-160.611)" fill="#631252"/>
    <path id="Caminho_5" data-name="Caminho 5" d="M226.369,172.086V190l6.9-11.112h1.693l6.9,10.847V172.086h2.29v22.657H242.29l-8.226-13.2-8.226,13.2h-1.826V172.086Z" transform="translate(-103.473 -67.817)" fill="#631252"/>
    <path id="Caminho_6" data-name="Caminho 6" d="M75.056,194.881V172.522h2.355v20.235H89.187v2.123Z" transform="translate(0 -68.12)" fill="#631252"/>
    <path id="Caminho_7" data-name="Caminho 7" d="M157.047,194.127l-2.72-6.867h-9.786l-2.687,6.867h-2.587l9.22-22.69h2.024l9.157,22.69Zm-11.711-8.89h8.195l-4.115-10.383Z" transform="translate(-44.605 -67.366)" fill="#631252"/>
  </g>
</svg>
